<svg xmlns="http://www.w3.org/2000/svg" height="48" viewBox="0 -960 960 960" width="48"><path d="M22-130v-116q0-42.313 21.383-75.459t59.661-50.563Q178-404 238.443-419t124.572-15q66.047 0 126.016 15Q549-404 624-372q38.156 15.844 60.078 49.149Q706-289.547 706-246.055V-130H22Zm755 0v-114q0-65-32.5-108T659-432q60 10 113 24.5t88.88 31.939q34.958 18.329 56.539 52.753Q939-288.385 939-240.946V-130H777ZM364.248-494q-71.798 0-115.523-43.725Q205-581.45 205-652q0-71.55 43.769-115.775Q292.539-812 363.544-812q70.006 0 115.231 44.144Q524-723.712 524-653q0 71.55-44.865 115.275Q434.271-494 364.248-494ZM750-653.009q0 70.559-44.55 114.784Q660.901-494 590.788-494q-13.094 0-23.441-1.5T543-502q26-27.412 38.5-64.959 12.5-37.548 12.5-85.099t-12.655-84.229Q568.69-772.965 543-804.13q10.75-3.62 23.741-5.745t24.01-2.125q69.76 0 114.504 44.635Q750-722.73 750-653.009Z"/></svg>